<?xml version="1.0" encoding="UTF-8"?>
<svg version="1.1" xmlns="http://www.w3.org/2000/svg" width="256" height="256">
<path d="M0 0 C3.21157339 2.62623321 6.22119957 5.45433944 9.203125 8.3359375 C11.53897562 10.56086784 13.9144883 12.56116365 16.4375 14.5625 C25.22783228 22.31115049 26.39158741 33.22921479 27.16210938 44.33694458 C27.44986247 49.49434076 27.61638837 54.65278137 27.74291992 59.81640625 C27.81312903 62.52426069 27.90907561 65.23048007 28.00585938 67.9375 C28.05364336 69.67704118 28.09992255 71.4166245 28.14453125 73.15625 C28.19115654 74.35634705 28.19115654 74.35634705 28.23872375 75.58068848 C28.32844424 80.49340082 27.71640266 83.73601499 25 88 C20.46436739 92.09313187 18.06738526 93.13189968 12 93 C11.92523438 93.65484375 11.85046875 94.3096875 11.7734375 94.984375 C9.77160772 108.87942879 2.89034297 119.21360782 -7.65234375 128.28125 C-10 130 -10 130 -12 130 C-11.67 133.3 -11.34 136.6 -11 140 C-6.20898847 141.89362526 -1.88508194 142.28868042 3.20507812 142.27124023 C4.00586288 142.27646698 4.80664764 142.28169373 5.63169861 142.28707886 C7.36186271 142.29728121 9.09205719 142.30309266 10.82225037 142.30496025 C13.56332606 142.30863677 16.30404413 142.32539749 19.04504395 142.34571838 C26.83513742 142.40101465 34.62528243 142.43182803 42.41552734 142.45629883 C47.18823495 142.47219155 51.96068637 142.50242419 56.73326111 142.54106331 C58.54806292 142.55269351 60.36291056 142.55864349 62.17774963 142.55874443 C64.71707871 142.55893694 67.2557026 142.57723522 69.79492188 142.59936523 C70.54003525 142.59478806 71.28514862 142.59021088 72.05284119 142.585495 C76.76198862 142.6505898 80.01102124 143.48654589 84 146 C87.34304831 150.7647236 87.43331857 155.08635127 87.3125 160.6875 C87.31572266 161.44611328 87.31894531 162.20472656 87.32226562 162.98632812 C87.28493821 166.83105198 87.17683587 168.73474619 85 172 C84.34 172 83.68 172 83 172 C83 174.97 83 177.94 83 181 C83.99 181.33 84.98 181.66 86 182 C87.63056957 185.26113913 87.14171523 188.85479317 87.1328125 192.4375 C87.13376923 193.27337646 87.13472595 194.10925293 87.13571167 194.97045898 C87.13639268 196.73909582 87.13454391 198.50773515 87.13037109 200.27636719 C87.12502171 202.98898921 87.13031875 205.70144565 87.13671875 208.4140625 C87.13605795 210.1302087 87.13477676 211.8463548 87.1328125 213.5625 C87.13483673 214.37710693 87.13686096 215.19171387 87.13894653 216.03100586 C87.11495964 221.77008072 87.11495964 221.77008072 86 224 C87.0725 223.9175 88.145 223.835 89.25 223.75 C93 224 93 224 95.375 225.5 C97.58103061 228.89389325 98.32007724 232.01019998 98 236 C96.46952494 240.30927055 94.0473092 243.82273059 90 246 C86.78858919 246.43355116 83.60207048 246.37848396 80.36621094 246.34057617 C78.90229919 246.34123329 78.90229919 246.34123329 77.40881348 246.34190369 C74.18379698 246.33981408 70.95930066 246.31647451 67.734375 246.29296875 C65.49807011 246.28737342 63.26176154 246.28310302 61.02545166 246.28010559 C55.13991135 246.26865194 49.25459318 246.23918005 43.36914062 246.20599365 C37.36331182 246.17530413 31.35744712 246.16160263 25.3515625 246.14648438 C13.56761074 246.11431104 1.78382384 246.06310821 -10 246 C-10.33 245.01 -10.66 244.02 -11 243 C-14.3 243 -17.6 243 -21 243 C-21.33 243.99 -21.66 244.98 -22 246 C-34.80431033 246.09269575 -47.60854078 246.16376313 -60.41311836 246.20724869 C-66.35886617 246.22811999 -72.30438435 246.25642988 -78.25 246.30175781 C-83.98826224 246.34523097 -89.72630365 246.36914054 -95.46471786 246.37950897 C-97.65358837 246.38689763 -99.84244684 246.40132592 -102.0312233 246.42292023 C-105.09806654 246.4519731 -108.16399823 246.45595512 -111.23095703 246.45410156 C-112.13510849 246.46848267 -113.03925995 246.48286377 -113.97080994 246.49768066 C-119.4587668 246.46180973 -122.6953622 245.74140877 -127 242 C-131.97848885 233.2046697 -129.61732668 225.00293418 -127.734375 215.6015625 C-127.4997052 214.41202972 -127.2650354 213.22249695 -127.02325439 211.99691772 C-126.52562267 209.4865173 -126.02446721 206.97681313 -125.52001953 204.46777344 C-124.75452472 200.64758058 -124.00753201 196.82407749 -123.26171875 193 C-122.77456256 190.55446312 -122.28631684 188.10914297 -121.796875 185.6640625 C-121.57690857 184.52941559 -121.35694214 183.39476868 -121.13031006 182.22573853 C-119.26157962 173.06700834 -116.70269451 163.02472545 -109 157 C-99.16445933 152.0201409 -88.54982238 148.63392361 -78.125 145.125 C-76.64696315 144.62290266 -75.16909759 144.12030078 -73.69140625 143.6171875 C-70.12954176 142.40566307 -66.56546522 141.20088408 -63 140 C-62.67 137.03 -62.34 134.06 -62 131 C-62.73476562 130.74089844 -63.46953125 130.48179687 -64.2265625 130.21484375 C-73.94520892 125.95780285 -80.11452726 116.41975001 -84.3203125 107.0625 C-86.16965046 102.30336454 -87.56008215 98.18075991 -87 93 C-88.010625 93.103125 -89.02125 93.20625 -90.0625 93.3125 C-94.87275162 92.930734 -97.61679457 91.39213209 -101 88 C-103.59023827 84.21924277 -103.23082249 80.25695001 -103.1171875 75.859375 C-103.10164825 75.05953186 -103.08610901 74.25968872 -103.07009888 73.43560791 C-103.03330097 71.73754408 -102.9909131 70.03959354 -102.94335938 68.34179688 C-102.87633764 65.80071555 -102.83938309 63.2604499 -102.8046875 60.71875 C-102.52420259 47.33185131 -101.44389487 31.0476319 -93 20 C-89.9375 18.75 -89.9375 18.75 -87 18 C-84.69397092 15.19537004 -83.18307572 13.12133878 -82.59375 9.51171875 C-81.49271853 4.85406589 -77.78391302 2.64255442 -74 0 C-51.58874443 -13.20226691 -22.11051938 -15.41709099 0 0 Z " fill="#040404" transform="translate(144,10)"/>
<path d="M0 0 C0.89879883 -0.00426498 1.79759766 -0.00852997 2.72363281 -0.01292419 C4.2143203 -0.01224442 4.2143203 -0.01224442 5.73512268 -0.0115509 C6.77568817 -0.01490952 7.81625366 -0.01826813 8.88835144 -0.02172852 C12.34713415 -0.03127064 15.80586862 -0.03318324 19.2646637 -0.03425598 C21.65740988 -0.03746623 24.05015585 -0.04083012 26.44290161 -0.04434204 C31.46593176 -0.05034144 36.48894467 -0.0521811 41.51197815 -0.05158997 C47.96316961 -0.05148828 54.41425115 -0.06514331 60.86541653 -0.08236217 C65.80920931 -0.09345511 70.75297529 -0.09551001 75.69677925 -0.09498024 C78.07592714 -0.09616435 80.45507563 -0.10061001 82.83421135 -0.10831261 C86.15542782 -0.11805826 89.47640271 -0.115256 92.79762268 -0.10920715 C93.78939011 -0.11482666 94.78115753 -0.12044617 95.80297852 -0.12623596 C96.70459717 -0.12204147 97.60621582 -0.11784698 98.53515625 -0.11352539 C99.32106864 -0.11407016 100.10698103 -0.11461493 100.91670895 -0.1151762 C102.83106995 0.13371277 102.83106995 0.13371277 104.83106995 2.13371277 C105.12302602 5.77022891 105.24673206 9.36711562 105.30958557 13.01261902 C105.38154623 15.05911004 105.59744642 17.09932738 105.83106995 19.13371277 C106.82106995 19.79371277 107.81106995 20.45371277 108.83106995 21.13371277 C109.22950745 23.22746277 109.22950745 23.22746277 109.20606995 25.63371277 C109.21767151 26.82480652 109.21767151 26.82480652 109.22950745 28.03996277 C109.09802307 28.73090027 108.9665387 29.42183777 108.83106995 30.13371277 C107.84106995 30.79371277 106.85106995 31.45371277 105.83106995 32.13371277 C105.50572404 35.16690537 105.36597892 38.00575845 105.35450745 41.04386902 C105.33892792 41.92650925 105.32334839 42.80914948 105.30729675 43.71853638 C105.2596617 46.54441938 105.2319738 49.3700539 105.20606995 52.19621277 C105.16963688 55.02576758 105.12906698 57.85517976 105.0834198 60.68460083 C105.05609732 62.44734387 105.03478807 64.21019173 105.0198822 65.9730835 C104.94171796 72.02306475 104.94171796 72.02306475 103.83106995 73.13371277 C102.42928664 73.231338 101.02262542 73.26002935 99.6174469 73.26069641 C98.25445969 73.26492615 98.25445969 73.26492615 96.86393738 73.26924133 C95.35686722 73.26620499 95.35686722 73.26620499 93.8193512 73.2631073 C92.76742584 73.26485962 91.71550049 73.26661194 90.63169861 73.26841736 C87.13563921 73.2728382 83.63962991 73.26989706 80.14356995 73.26652527 C77.726008 73.26719824 75.30844612 73.26816821 72.8908844 73.26942444 C67.81657774 73.27090173 62.74228864 73.26874586 57.66798401 73.26408386 C51.14722292 73.25838656 44.62650299 73.2616654 38.10574341 73.26765633 C33.11138089 73.2712611 28.11702821 73.27012374 23.12266541 73.26752853 C20.71757502 73.26685903 18.31248376 73.26768849 15.90739441 73.27000809 C12.55250159 73.27253325 9.19767644 73.26869594 5.8427887 73.2631073 C4.83807526 73.26513153 3.83336182 73.26715576 2.79820251 73.26924133 C1.88954437 73.26642151 0.98088623 73.26360168 0.04469299 73.26069641 C-0.74951553 73.26031939 -1.54372406 73.25994236 -2.36199951 73.25955391 C-4.16893005 73.13371277 -4.16893005 73.13371277 -5.16893005 72.13371277 C-5.26853157 69.93046303 -5.29692762 67.72397786 -5.29832458 65.51847839 C-5.3000769 64.82743515 -5.30182922 64.13639191 -5.30363464 63.42440796 C-5.3080526 61.1295677 -5.30511539 58.83480388 -5.30174255 56.53996277 C-5.30241561 54.95194992 -5.30338565 53.36393718 -5.30464172 51.77592468 C-5.30611862 48.44351727 -5.30396441 45.11113661 -5.29930115 41.7787323 C-5.29360386 37.49772767 -5.29688291 33.21678572 -5.30287361 28.93578339 C-5.30647945 25.65537541 -5.30534053 22.3749824 -5.30274582 19.09457397 C-5.30207661 17.51564527 -5.30290475 15.93671523 -5.30522537 14.35778809 C-5.30775228 12.15480424 -5.3039108 9.95192328 -5.29832458 7.74894714 C-5.29752899 6.49287659 -5.2967334 5.23680603 -5.2959137 3.94267273 C-5.09903901 -0.4123221 -3.95192479 0.00843095 0 0 Z " fill="#ECECEC" transform="translate(118.16893005371094,160.8662872314453)"/>
<path d="M0 0 C2.48466433 1.39762368 3.72810504 3.33803576 5.43823242 5.56958008 C7.35270051 7.47626699 9.18875868 8.28852101 11.67578125 9.32421875 C12.89068237 9.83795044 12.89068237 9.83795044 14.13012695 10.36206055 C14.74718506 10.61383057 15.36424316 10.86560059 16 11.125 C16.09998003 16.58352509 16.17198513 22.04150004 16.21972656 27.50073242 C16.23965928 29.35206403 16.26681568 31.20333421 16.30175781 33.05444336 C16.60181359 49.37659497 15.43568369 62.41403897 4 75.125 C-6.16425201 84.74796048 -17.70433864 86.71081532 -31.15234375 86.45703125 C-42.43770474 85.92628948 -50.53296398 80.2841677 -58 72.125 C-66.88941911 61.05551194 -68.20702133 50.00520588 -68.3125 36.1875 C-68.34150391 34.92486328 -68.37050781 33.66222656 -68.40039062 32.36132812 C-68.47156979 21.98559592 -68.47156979 21.98559592 -66.23046875 18.37109375 C-63.39377243 15.51452565 -61.46082272 14.2168067 -57.3972168 13.96142578 C-56.42437744 13.9973584 -55.45153809 14.03329102 -54.44921875 14.0703125 C-52.82330811 14.11164307 -52.82330811 14.11164307 -51.16455078 14.15380859 C-50.01712402 14.18555176 -48.86969727 14.21729492 -47.6875 14.25 C-31.96860539 14.45077698 -16.97218637 12.1429827 -4.2890625 1.9453125 C-2 0.125 -2 0.125 0 0 Z " fill="#ECAD6A" transform="translate(132,52.875)"/>
<path d="M0 0 C0.3403125 1.299375 0.3403125 1.299375 0.6875 2.625 C2.47222446 7.21429146 4.84296866 10.76741066 9.1875 13.25 C13.40811057 14.37549615 17.71672583 15.14334517 22 16 C22 35.47 22 54.94 22 75 C18.535 75.99 18.535 75.99 15 77 C12.88329643 78.46041766 12.88329643 78.46041766 12 81 C12 83.97 12 86.94 12 90 C-0.54 90 -13.08 90 -26 90 C-26.375 71.625 -26.375 71.625 -26.47802734 65.82666016 C-26.51322497 64.31410943 -26.54914529 62.80157528 -26.5859375 61.2890625 C-26.59729736 60.50039795 -26.60865723 59.7117334 -26.62036133 58.89916992 C-26.56873152 54.48006322 -26.56873152 54.48006322 -29 51 C-31.10820797 51.3185177 -31.10820797 51.3185177 -33 52 C-33.33 54.31 -33.66 56.62 -34 59 C-41.26 59 -48.52 59 -56 59 C-55.11750015 51.05750131 -53.78846963 43.53990654 -52.125 35.75 C-51.74021484 33.87054688 -51.74021484 33.87054688 -51.34765625 31.953125 C-50.96287109 30.14328125 -50.96287109 30.14328125 -50.5703125 28.296875 C-50.34102051 27.20729492 -50.11172852 26.11771484 -49.87548828 24.99511719 C-48.23859826 19.39518224 -45.82671303 16.29788324 -40.75585938 13.33447266 C-35.05889747 10.57582686 -29.06681916 8.55767934 -23.08984375 6.49584961 C-20.73772639 5.68325982 -18.39216957 4.85353582 -16.046875 4.02148438 C-14.5472301 3.49638061 -13.04724168 2.97225663 -11.546875 2.44921875 C-10.84890808 2.20241867 -10.15094116 1.95561859 -9.43182373 1.70133972 C-6.05656052 0.54574386 -3.61729137 0 0 0 Z " fill="#6B7C85" transform="translate(83,159)"/>
<path d="M0 0 C1.39665894 0.00737183 1.39665894 0.00737183 2.8215332 0.01489258 C20.84537573 0.32096671 34.37248208 7.52692603 46.8125 20.3125 C47.658125 20.93125 48.50375 21.55 49.375 22.1875 C55.97991126 27.94562777 56.84683803 34.98811936 57.8125 43.3125 C58.02300705 47.73477477 58.00542935 52.13664168 57.9375 56.5625 C57.92847656 57.70074219 57.91945313 58.83898437 57.91015625 60.01171875 C57.8869028 62.77887881 57.85422868 65.5455676 57.8125 68.3125 C55.5025 67.9825 53.1925 67.6525 50.8125 67.3125 C50.76351562 66.25289063 50.71453125 65.19328125 50.6640625 64.1015625 C50.58903291 62.71351503 50.51348515 61.32549549 50.4375 59.9375 C50.4065625 59.23882812 50.375625 58.54015625 50.34375 57.8203125 C50.21750502 53.61064173 50.21750502 53.61064173 47.8125 50.3125 C46.42712051 49.90055416 45.02900347 49.53064715 43.625 49.1875 C38.69860404 47.66190641 36.32968121 45.06517362 33.22265625 41.0546875 C31.27429102 38.64756592 30.17467393 38.35569028 27.09375 37.98828125 C22.37913408 38.4541302 19.41535031 40.94358001 15.7265625 43.67382812 C4.3153868 51.62747018 -7.26707374 53.01687486 -20.6875 52.875 C-22.8147002 52.85829044 -24.94052512 52.84940604 -27.06774902 52.86473083 C-28.97546814 52.87807866 -30.88332561 52.86295322 -32.79101562 52.84594727 C-37.92953886 53.55179243 -40.98036298 56.00476823 -44.4375 59.75 C-46.12463484 62.22044744 -47.2200757 64.49084578 -48.1875 67.3125 C-51.6525 67.8075 -51.6525 67.8075 -55.1875 68.3125 C-56.17358643 41.33207958 -56.17358643 41.33207958 -49.51171875 30.6171875 C-47.81814916 28.24345971 -47.81814916 28.24345971 -48.8125 24.875 C-49.20384183 21.15725262 -49.2164311 20.67237156 -47.125 17.875 C-44.1875 15.3125 -44.1875 15.3125 -41.296875 15.3828125 C-37.37989226 15.29423751 -36.34398544 14.23721752 -33.5 11.625 C-23.74381486 3.3234268 -12.67175474 -0.07864991 0 0 Z " fill="#4B4745" transform="translate(105.1875,7.6875)"/>
<path d="M0 0 C43.56 0 87.12 0 132 0 C131 4 131 4 129 6 C125.95819641 6.21803117 123.00483428 6.31146238 119.96044922 6.31884766 C118.55549698 6.33391609 118.55549698 6.33391609 117.12216187 6.34928894 C114.01634351 6.38025887 110.91061187 6.39719435 107.8046875 6.4140625 C105.65519456 6.43276305 103.50570905 6.45233561 101.35623169 6.4727478 C95.69110481 6.52419265 90.0259541 6.56375214 84.36071777 6.60089111 C78.58286585 6.64085349 72.80511413 6.69198116 67.02734375 6.7421875 C55.68496609 6.83909298 44.34253202 6.9234508 33 7 C32.34 8.32 31.68 9.64 31 11 C27.7 11 24.4 11 21 11 C20.67 10.01 20.34 9.02 20 8 C16.35105683 6.17552841 11.81212742 6.62744513 7.765625 6.48242188 C2.21395614 6.21395614 2.21395614 6.21395614 0 4 C0 2.68 0 1.36 0 0 Z " fill="#C5C5C5" transform="translate(102,242)"/>
<path d="M0 0 C1.1821995 0.00138269 1.1821995 0.00138269 2.38828182 0.00279331 C3.28997097 0.00141865 4.19166012 0.00004398 5.12067318 -0.00137234 C6.6160738 0.00402058 6.6160738 0.00402058 8.14168453 0.00952244 C9.18546261 0.00937641 10.22924068 0.00923038 11.3046484 0.00907993 C14.77305295 0.00977956 18.24140454 0.0175743 21.70979977 0.02539158 C24.1073367 0.02725558 26.50487401 0.02867957 28.90241146 0.0296793 C35.22684936 0.03350589 41.55126446 0.04333737 47.87569332 0.05438328 C54.32364754 0.06459438 60.77160543 0.06917627 67.21956539 0.0742197 C79.88168452 0.08495951 92.54378781 0.10184664 105.20589352 0.12304783 C105.20589352 0.45304783 105.20589352 0.78304783 105.20589352 1.12304783 C72.20589352 1.12304783 39.20589352 1.12304783 5.20589352 1.12304783 C5.20589352 24.88304783 5.20589352 48.64304783 5.20589352 73.12304783 C2.89589352 73.12304783 0.58589352 73.12304783 -1.79410648 73.12304783 C-3.67471144 71.24244287 -2.92191647 68.00946639 -2.92350101 65.50781345 C-2.92525333 64.81677021 -2.92700565 64.12572697 -2.92881107 63.41374302 C-2.93322903 61.11890276 -2.93029182 58.82413894 -2.92691898 56.52929783 C-2.92759204 54.94128498 -2.92856208 53.35327224 -2.92981815 51.76525974 C-2.93129505 48.43285233 -2.92914084 45.10047167 -2.92447758 41.76806736 C-2.91878029 37.48706273 -2.92205934 33.20612078 -2.92805004 28.92511845 C-2.93165588 25.64471047 -2.93051696 22.36431746 -2.92792225 19.08390903 C-2.92725304 17.50498033 -2.92808118 15.92605029 -2.9304018 14.34712315 C-2.93292871 12.1441393 -2.92908723 9.94125834 -2.92350101 7.7382822 C-2.92270542 6.48221165 -2.92190983 5.22614109 -2.92109013 3.93200779 C-2.75186936 0.18873548 -2.75186936 0.18873548 0 0 Z " fill="#D2D2D2" transform="translate(115.79410648345947,160.87695217132568)"/>
<path d="M0 0 C-0.52207031 0.1959375 -1.04414062 0.391875 -1.58203125 0.59375 C-16.93902801 6.8333704 -27.41116678 17.83872003 -33.84765625 33.01171875 C-36.67830627 40.35221797 -37.16234546 46.12147399 -36.77734375 54.046875 C-37.03114598 57.41309404 -37.81054604 58.51644028 -40 61 C-40.71162443 62.64797236 -41.39031953 64.31165408 -42 66 C-45.465 66.495 -45.465 66.495 -49 67 C-49.98608643 40.01957958 -49.98608643 40.01957958 -43.32421875 29.3046875 C-41.63064916 26.93095971 -41.63064916 26.93095971 -42.625 23.5625 C-43.01634183 19.84475262 -43.0289311 19.35987156 -40.9375 16.5625 C-38 14 -38 14 -35.109375 14.0703125 C-31.19239226 13.98173751 -30.15648544 12.92471752 -27.3125 10.3125 C-20.56880173 4.57426277 -9.20945088 -2.74493353 0 0 Z " fill="#3C3837" transform="translate(99,9)"/>
<path d="M0 0 C7.92 0 15.84 0 24 0 C24 7.59 24 15.18 24 23 C20.04148748 23.05373546 16.08369745 23.0935461 12.125 23.125 C10.99707031 23.14175781 9.86914062 23.15851563 8.70703125 23.17578125 C7.09248047 23.18544922 7.09248047 23.18544922 5.4453125 23.1953125 C3.95281982 23.21102295 3.95281982 23.21102295 2.43017578 23.22705078 C0 23 0 23 -2 21 C-2.265625 18.49609375 -2.265625 18.49609375 -2.25 15.4375 C-2.25773437 13.95056641 -2.25773437 13.95056641 -2.265625 12.43359375 C-1.94069284 8.2333678 -0.91387936 4.1124571 0 0 Z " fill="#D49258" transform="translate(25,225)"/>
<path d="M0 0 C0 0.33 0 0.66 0 1 C-1.98 1 -3.96 1 -6 1 C-5.93032971 5.76529376 -5.8419993 10.52977505 -5.73754883 15.29443359 C-5.70462273 16.90990051 -5.6764942 18.52547356 -5.65356445 20.14111328 C-5.40039045 37.51854561 -2.89806111 50.73968125 8.9375 64.0546875 C10.98146366 66.12449264 10.98146366 66.12449264 13.75 67.6328125 C14.4925 68.08398438 15.235 68.53515625 16 69 C16 69.66 16 70.32 16 71 C4.50356609 67.96621883 -3.85946129 60.93893847 -10.3203125 50.9609375 C-15.25941294 41.77786927 -15.36431772 32.03010315 -15.375 21.8125 C-15.39949219 20.56791016 -15.42398438 19.32332031 -15.44921875 18.04101562 C-15.48543896 6.77049489 -15.48543896 6.77049489 -11 2 C-7.59079146 -0.58629613 -4.15494595 -0.15980561 0 0 Z " fill="#D5955A" transform="translate(79,67)"/>
<path d="M0 0 C3.69731085 1.81504351 6.33858616 3.87847219 8.4375 7.4375 C9.46541193 12.12020992 9.60096812 14.864838 7.3125 19.1875 C4.89150168 22.13195741 3.55935872 23.65535337 0 25 C-4.91658483 25.29553242 -8.06703756 24.75431006 -11.9375 21.625 C-15.51651468 17.06989041 -16.594346 14.84440236 -16 9 C-12.35470375 1.97942945 -8.00139621 -1.10364086 0 0 Z " fill="#0A0A0A" transform="translate(171,185)"/>
<path d="M0 0 C0 3.3 0 6.6 0 10 C-0.89203125 10.02578125 -1.7840625 10.0515625 -2.703125 10.078125 C-3.87359375 10.13484375 -5.0440625 10.1915625 -6.25 10.25 C-7.99023438 10.31960937 -7.99023438 10.31960937 -9.765625 10.390625 C-13.54276012 11.10225915 -14.72475211 11.95202641 -17 15 C-17.88246003 17.09989111 -17.88246003 17.09989111 -18.25 19.25 C-18.4975 20.4875 -18.745 21.725 -19 23 C-24.23890086 23.31433405 -27.52833673 22.80778856 -32 20 C-34.52775351 16.20836973 -34.22443035 13.19125969 -34.125 8.8125 C-34.11597656 8.06291016 -34.10695313 7.31332031 -34.09765625 6.54101562 C-34.07412578 4.69387346 -34.03825561 2.84689588 -34 1 C-33.00742188 1.16113281 -32.01484375 1.32226562 -30.9921875 1.48828125 C-27.03928123 2.04971716 -23.11405027 2.19134579 -19.125 2.1875 C-18.42681152 2.18814453 -17.72862305 2.18878906 -17.00927734 2.18945312 C-11.19406602 2.13004535 -5.63266036 0 0 0 Z " fill="#D8965B" transform="translate(124,144)"/>
<path d="M0 0 C0.66 0.33 1.32 0.66 2 1 C1.39285156 1.56847656 0.78570312 2.13695312 0.16015625 2.72265625 C-3.06140392 7.61033977 -3.59765545 12.72739282 -4.5625 18.4375 C-4.98331697 20.77753427 -5.40518426 23.1173799 -5.828125 25.45703125 C-6.12686523 27.1443335 -6.12686523 27.1443335 -6.43164062 28.86572266 C-7.47340192 34.61062449 -8.74047598 40.29899654 -10 46 C-5.38 46 -0.76 46 4 46 C4 46.33 4 46.66 4 47 C-3.26 47 -10.52 47 -18 47 C-17.11750015 39.05750131 -15.78846963 31.53990654 -14.125 23.75 C-13.74021484 21.87054688 -13.74021484 21.87054688 -13.34765625 19.953125 C-12.96287109 18.14328125 -12.96287109 18.14328125 -12.5703125 16.296875 C-12.34102051 15.20729492 -12.11172852 14.11771484 -11.87548828 12.99511719 C-10.41559393 8.00069892 -8.4006603 4.81123854 -3.9375 2.125 C-3.24527344 1.69445312 -2.55304687 1.26390625 -1.83984375 0.8203125 C-0.92912109 0.41425781 -0.92912109 0.41425781 0 0 Z " fill="#556873" transform="translate(45,171)"/>
<path d="M0 0 C4.455 0.99 4.455 0.99 9 2 C9.33 8.6 9.66 15.2 10 22 C3 20 3 20 1.07421875 18.390625 C-0.49986517 14.88757278 -0.31697993 11.50823797 -0.1875 7.75 C-0.17396484 7.00492188 -0.16042969 6.25984375 -0.14648438 5.4921875 C-0.11127204 3.66114584 -0.05746851 1.83047831 0 0 Z " fill="#CE8A53" transform="translate(90,145)"/>
<path d="M0 0 C6.6 0 13.2 0 20 0 C20.66 2.31 21.32 4.62 22 7 C25.18762365 9.12508244 27.26512223 9.5020163 31 10 C31 10.33 31 10.66 31 11 C27.7 11 24.4 11 21 11 C20.67 10.01 20.34 9.02 20 8 C16.35105683 6.17552841 11.81212742 6.62744513 7.765625 6.48242188 C2.21395614 6.21395614 2.21395614 6.21395614 0 4 C0 2.68 0 1.36 0 0 Z " fill="#B4B5B5" transform="translate(102,242)"/>
<path d="M0 0 C0 3.96 0 7.92 0 12 C-5 12 -5 12 -6.8125 10.875 C-8.55198782 8.12844028 -8.39769128 6.18153026 -8 3 C-5.68538278 -0.65465877 -4.67160771 0 0 0 Z " fill="#C48550" transform="translate(57,83)"/>
<path d="M0 0 C2.875 0.3125 2.875 0.3125 6 1 C8 4 8 4 7.8125 7.0625 C7 10 7 10 4 12 C2.68 12 1.36 12 0 12 C0 8.04 0 4.08 0 0 Z " fill="#D7965B" transform="translate(156,83)"/>
<path d="M0 0 C2.5 0.25 2.5 0.25 4.5 2.25 C4.6875 5.3125 4.6875 5.3125 4.5 8.25 C3.5 9.25 3.5 9.25 0.5625 9.4375 C-2.5 9.25 -2.5 9.25 -4.5 7.25 C-4.75 4.75 -4.75 4.75 -4.5 2.25 C-2.5 0.25 -2.5 0.25 0 0 Z " fill="#BFBFBF" transform="translate(167.5,192.75)"/>
<path d="M0 0 C0.75 1.75 0.75 1.75 1 4 C-0.6875 6.25 -0.6875 6.25 -3 8 C-4.32 8 -5.64 8 -7 8 C-7 6.35 -7 4.7 -7 3 C-4.69 2.01 -2.38 1.02 0 0 Z " fill="#C5844F" transform="translate(163,87)"/>
<path d="M0 0 C3.875 0.875 3.875 0.875 5 2 C5.04080783 3.99958364 5.04254356 6.00045254 5 8 C3.0625 7.375 3.0625 7.375 1 6 C0.25 2.875 0.25 2.875 0 0 Z " fill="#D4D4D4" transform="translate(167,193)"/>
<path d="M0 0 C0.66 0 1.32 0 2 0 C2 2.31 2 4.62 2 7 C-0.97 6.505 -0.97 6.505 -4 6 C-2.84826645 3.53199953 -1.95216435 1.95216435 0 0 Z " fill="#DC995D" transform="translate(54,83)"/>
</svg>
